<?xml version="1.0" encoding="UTF-8" standalone="no"?>
<svg
   version="1.1"
   width="1024"
   height="1024"
   id="svg3"
   sodipodi:docname="lines.svg"
   inkscape:version="1.4.3 (0d15f75, 2025-12-25)"
   xmlns:inkscape="http://www.inkscape.org/namespaces/inkscape"
   xmlns:sodipodi="http://sodipodi.sourceforge.net/DTD/sodipodi-0.dtd"
   xmlns="http://www.w3.org/2000/svg"
   xmlns:svg="http://www.w3.org/2000/svg">
  <defs
     id="defs3" />
  <sodipodi:namedview
     id="namedview3"
     pagecolor="#ffffff"
     bordercolor="#000000"
     borderopacity="0.25"
     inkscape:showpageshadow="2"
     inkscape:pageopacity="0.0"
     inkscape:pagecheckerboard="0"
     inkscape:deskcolor="#d1d1d1"
     inkscape:zoom="0.42848478"
     inkscape:cx="170.36778"
     inkscape:cy="598.62103"
     inkscape:window-width="1211"
     inkscape:window-height="718"
     inkscape:window-x="0"
     inkscape:window-y="26"
     inkscape:window-maximized="0"
     inkscape:current-layer="svg3" />
  <g
     id="g1"
     transform="translate(-0.82104787,-3.2841915)"
     style="fill:#000000">
    <path
       d="m 272.58748,521.23756 c 10.07355,0.90889 20.08072,3.06767 30,5 -22.29925,104.73375 -8.72236,228.46914 132.33008,279.94717 52.81952,18.74935 112.83736,15.68813 163.66992,-7.84326 111.75099,-63.77505 123.15375,-169.32287 103.83678,-272.10391 16.17877,-3.18442 26.24942,-4.11604 35.32166,-5 33.03517,179.13346 -50.78852,264.62147 -109.10229,298.22403 -57.5378,32.83119 -127.6183,38.86362 -191.05615,21.87988 -206.56078,-57.5517 -183.86561,-253.8225 -165,-320.10391 z"
       fill="#000000"
       id="path1"
       sodipodi:nodetypes="ccccccccc"
       style="fill:#000000" />
    <path
       d="m 395.58748,537.23756 c 19.68372,0.71747 39.33869,1.83557 59,3 -39.02763,39.02892 -36.44241,114.95394 31,135 16.1327,5.07314 33.03626,2.06706 48.78906,-2.875 38.29218,-13.615 58.72347,-61.59663 44.14453,-101.00782 -8.88079,-18.23054 -35.04247,-10.76186 -24.93359,25.88282 -9.52923,5.65446 -32.01047,1.20567 -42,-12 -12.50757,-22.1695 -6.16585,-35.66831 -2,-44 90.19293,-2.6023 96.64272,-4.20449 108,-4 45.41803,77.46834 -0.0655,170.63829 -93.19922,187.58203 C 405.94684,737.8445 346.34387,615.72888 395.58748,537.23756 Z"
       fill="#000000"
       id="path3"
       sodipodi:nodetypes="ccccccccccc"
       style="fill:#000000" />
  </g>
  <path
     d="m 264.58748,370.23756 c 15.57256,19.19205 221.29984,89.8662 479,7 2.77485,-0.89229 4.19705,-4.93803 5.85579,-4.0419 3.6871,8.29342 9.5381,35.75826 7.14421,46.0419 -28.70238,41.81993 -354.22864,66.44863 -497,3 -6.90728,-12.51801 2.14811,-38.34281 5,-52 z"
     fill="#000000"
     id="path2"
     sodipodi:nodetypes="cscccc"
     style="fill:#000000" />
</svg>
